<svg xmlns="http://www.w3.org/2000/svg" width="184" height="38" fill="none" viewBox="0 0 184 38"><path fill="#000" fill-rule="evenodd" d="M183.5 37.5V28.3833H165.959V28.0634L181.905 9.29683V0.5H153.679V9.61671H168.563V9.9366L152.723 28.4899V37.5H183.5Z" clip-rule="evenodd"/><path fill="#000" fill-rule="evenodd" d="M146.335 37.5V28.0916H132.539V23.0738H122.09V14.2927H132.539V9.58849H146.335V0.5H122.09V37.5H146.335Z" clip-rule="evenodd"/><rect width="8.856" height="8.851" x="132.833" y="14.14" fill="#FF4DB8"/><path fill="#000" fill-rule="evenodd" d="M106.719 37.5V9.77666H115.557V0.5H87.3931V9.77666H96.1777V37.5H106.719Z" clip-rule="evenodd"/><path fill="#000" fill-rule="evenodd" d="M81.7313 37.5V28.0916H67.9355V23.0738H57.4868V14.2927H67.9355V9.58849H81.7313V0.5H57.4868V37.5H81.7313Z" clip-rule="evenodd"/><path fill="#000" d="M21.187 37.5L25.6039 17.0274H25.9232L30.2337 37.5H43.4314L51.6799 0.5H40.6109L36.3004 24.7579H35.9811L34.306 15.1926L17.8759 15.2438L15.9718 24.7579H15.6525L11.5548 0.5H0.800081C0.610268 0.5 0.468166 0.674058 0.506148 0.860031L7.98933 37.5H21.187Z"/><rect width="11.759" height="11.753" x="20.031" y=".5" fill="#00F4FF"/><rect width="8.856" height="8.851" x="68.375" y="14.14" fill="#FFE200"/></svg>